<?xml version="1.0" encoding="utf-8"?>
<!-- Generator: Adobe Illustrator 15.0.0, SVG Export Plug-In . SVG Version: 6.00 Build 0)  -->
<!DOCTYPE svg PUBLIC "-//W3C//DTD SVG 1.1//EN" "http://www.w3.org/Graphics/SVG/1.1/DTD/svg11.dtd">
<svg version="1.1" id="Layer_1" xmlns="http://www.w3.org/2000/svg" xmlns:xlink="http://www.w3.org/1999/xlink" x="0px" y="0px"
	 width="216px" height="39.6px" viewBox="0 0 216 39.6" enable-background="new 0 0 216 39.6" xml:space="preserve">
<g>
	<g>
		<path fill="#ED1C24" stroke="#ED1C24" stroke-width="0.5" stroke-miterlimit="10" d="M102.667,27.993
			c0,2.561-2.076,4.642-4.639,4.642c-2.563,0-4.639-2.081-4.639-4.642c0-2.564,2.075-4.641,4.639-4.641
			C100.591,23.353,102.667,25.429,102.667,27.993z"/>
		<circle fill="#ED1C24" stroke="#ED1C24" stroke-width="0.5" stroke-miterlimit="10" cx="86.375" cy="7.771" r="4.637"/>
		<path fill="#ED1C24" stroke="#ED1C24" stroke-width="0.5" stroke-miterlimit="10" d="M98.043,9.87
			c2.562,0,4.637,2.075,4.637,4.639c0,2.561-2.075,4.634-4.637,4.634s-4.64-2.074-4.64-4.634C93.404,11.945,95.481,9.87,98.043,9.87
			z"/>
		<circle fill="#ED1C24" stroke="#ED1C24" stroke-width="0.5" stroke-miterlimit="10" cx="74.648" cy="14.554" r="4.639"/>
		<path fill="#ED1C24" stroke="#ED1C24" stroke-width="0.5" stroke-miterlimit="10" d="M86.315,39.369
			c-2.562,0-4.639-2.073-4.639-4.64c0-2.559,2.076-4.64,4.639-4.64c2.559,0,4.638,2.081,4.638,4.64
			C90.953,37.296,88.874,39.369,86.315,39.369z"/>
		<path fill="#ED1C24" stroke="#ED1C24" stroke-width="0.5" stroke-miterlimit="10" d="M74.645,32.633
			c-2.56,0-4.636-2.081-4.636-4.642c0-2.564,2.076-4.635,4.636-4.635c2.566,0,4.642,2.07,4.642,4.635
			C79.287,30.552,77.211,32.633,74.645,32.633z"/>
	</g>
	<g>
		<g>
			<path d="M112.236,9.35v2.827c1.965-2.174,4.197-3.261,6.693-3.261c1.385,0,2.674,0.358,3.865,1.075
				c1.191,0.717,2.1,1.699,2.717,2.948c0.621,1.248,0.932,3.225,0.932,5.931v12.708h-4.396v-12.66c0-2.271-0.346-3.893-1.039-4.868
				c-0.693-0.974-1.854-1.461-3.479-1.461c-2.078,0-3.842,1.039-5.293,3.117v15.873h-4.493V9.35H112.236z"/>
			<path d="M136.977,9.35v2.827c1.965-2.174,4.195-3.261,6.691-3.261c1.385,0,2.674,0.358,3.865,1.075
				c1.191,0.717,2.098,1.699,2.717,2.948c0.621,1.248,0.932,3.225,0.932,5.931v12.708h-4.396v-12.66
				c0-2.271-0.348-3.893-1.039-4.868c-0.693-0.974-1.854-1.461-3.479-1.461c-2.078,0-3.842,1.039-5.291,3.117v15.873h-4.494V9.35
				H136.977z"/>
			<path d="M176.26,20.849h-15.633c0.113,2.127,0.826,3.818,2.139,5.074s3.008,1.885,5.086,1.885c2.898,0,5.572-0.902,8.021-2.706
				v4.3c-1.354,0.902-2.693,1.546-4.023,1.933c-1.328,0.388-2.887,0.58-4.674,0.58c-2.449,0-4.43-0.507-5.943-1.521
				c-1.516-1.016-2.727-2.38-3.637-4.096c-0.91-1.715-1.363-3.7-1.363-5.955c0-3.382,0.957-6.132,2.875-8.25
				c1.914-2.118,4.404-3.177,7.463-3.177c2.949,0,5.299,1.031,7.055,3.092c1.756,2.062,2.635,4.824,2.635,8.287V20.849z
				 M160.725,18.216h11.186c-0.113-1.755-0.637-3.108-1.57-4.059c-0.934-0.95-2.191-1.425-3.77-1.425s-2.871,0.476-3.877,1.425
				C161.686,15.107,161.031,16.46,160.725,18.216z"/>
			<path d="M197.688,26.382v4.349c-2.207,0.821-4.365,1.231-6.475,1.231c-3.479,0-6.252-1.029-8.322-3.092
				c-2.07-2.062-3.105-4.824-3.105-8.286c0-3.495,1.008-6.314,3.021-8.456c2.012-2.142,4.662-3.213,7.947-3.213
				c1.145,0,2.17,0.109,3.08,0.326c0.91,0.218,2.033,0.625,3.369,1.221v4.687c-2.221-1.417-4.283-2.126-6.184-2.126
				c-1.98,0-3.607,0.696-4.879,2.09c-1.273,1.393-1.91,3.168-1.91,5.327c0,2.271,0.689,4.075,2.066,5.412s3.232,2.005,5.568,2.005
				C193.557,27.855,195.498,27.364,197.688,26.382z"/>
			<path d="M199.572,12.877l8.264-8.117v4.59h7.029v3.962h-7.029V24.19c0,2.539,1.053,3.811,3.164,3.811c1.578,0,3.244-0.523,5-1.57
				v4.105c-1.691,0.951-3.535,1.426-5.531,1.426c-2.014,0-3.689-0.587-5.025-1.763c-0.42-0.354-0.766-0.753-1.039-1.196
				s-0.504-1.022-0.689-1.739c-0.184-0.716-0.277-2.081-0.277-4.095v-9.857h-3.865V12.877z"/>
		</g>
		<g>
			<path d="M17.902,26.382v4.349c-2.207,0.821-4.365,1.231-6.475,1.231c-3.479,0-6.253-1.029-8.323-3.092
				C1.035,26.809,0,24.046,0,20.584c0-3.495,1.006-6.314,3.02-8.456c2.013-2.142,4.663-3.213,7.948-3.213
				c1.144,0,2.17,0.109,3.08,0.326c0.91,0.218,2.033,0.625,3.37,1.221v4.687c-2.222-1.417-4.284-2.126-6.185-2.126
				c-1.981,0-3.608,0.696-4.88,2.09c-1.273,1.393-1.909,3.168-1.909,5.327c0,2.271,0.689,4.075,2.066,5.412s3.233,2.005,5.569,2.005
				C13.771,27.855,15.711,27.364,17.902,26.382z"/>
			<path d="M25.173,0c0.725,0,1.345,0.25,1.86,0.749c0.515,0.5,0.773,1.111,0.773,1.836c0,0.709-0.258,1.321-0.773,1.836
				c-0.516,0.516-1.135,0.773-1.86,0.773c-0.676,0-1.272-0.262-1.788-0.785c-0.515-0.523-0.772-1.131-0.772-1.825
				c0-0.676,0.257-1.276,0.772-1.799C23.901,0.262,24.497,0,25.173,0z M22.999,9.35h4.397v22.227h-4.397V9.35z"/>
			<path d="M64.166,26.382v4.349c-2.207,0.821-4.365,1.231-6.474,1.231c-3.479,0-6.254-1.029-8.323-3.092
				c-2.069-2.062-3.104-4.824-3.104-8.286c0-3.495,1.006-6.314,3.02-8.456c2.013-2.142,4.663-3.213,7.949-3.213
				c1.144,0,2.17,0.109,3.08,0.326c0.91,0.218,2.033,0.625,3.37,1.221v4.687c-2.223-1.417-4.284-2.126-6.185-2.126
				c-1.981,0-3.608,0.696-4.88,2.09c-1.272,1.393-1.909,3.168-1.909,5.327c0,2.271,0.689,4.075,2.066,5.412s3.233,2.005,5.569,2.005
				C60.034,27.855,61.975,27.364,64.166,26.382z"/>
		</g>
	</g>
</g>
</svg>
